<?xml version="1.0" encoding="UTF-8" standalone="no"?>
<!-- Created with Inkscape (http://www.inkscape.org/) -->

<svg
   xmlns:dc="http://purl.org/dc/elements/1.1/"
   xmlns:cc="http://creativecommons.org/ns#"
   xmlns:rdf="http://www.w3.org/1999/02/22-rdf-syntax-ns#"
   xmlns:svg="http://www.w3.org/2000/svg"
   xmlns="http://www.w3.org/2000/svg"
   xmlns:sodipodi="http://sodipodi.sourceforge.net/DTD/sodipodi-0.dtd"
   xmlns:inkscape="http://www.inkscape.org/namespaces/inkscape"
   width="210mm"
   height="297mm"
   viewBox="0 0 744.09448819 1052.3622047"
   id="svg2"
   version="1.1"
   inkscape:version="0.48.5 r10040"
   sodipodi:docname="SVGtest.svg">
  <defs
     id="defs4" />
  <sodipodi:namedview
     id="base"
     pagecolor="#ffffff"
     bordercolor="#666666"
     borderopacity="1.0"
     inkscape:pageopacity="0.0"
     inkscape:pageshadow="2"
     inkscape:zoom="0.49497475"
     inkscape:cx="507.4407"
     inkscape:cy="544.26872"
     inkscape:document-units="px"
     inkscape:current-layer="layer1"
     showgrid="false"
     inkscape:window-width="1280"
     inkscape:window-height="659"
     inkscape:window-x="0"
     inkscape:window-y="36"
     inkscape:window-maximized="1"
     showguides="true"
     inkscape:guide-bbox="true" />
  <metadata
     id="metadata7">
    <rdf:RDF>
      <cc:Work
         rdf:about="">
        <dc:format>image/svg+xml</dc:format>
        <dc:type
           rdf:resource="http://purl.org/dc/dcmitype/StillImage" />
        <dc:title />
      </cc:Work>
    </rdf:RDF>
  </metadata>
  <g
     inkscape:label="Layer 1"
     inkscape:groupmode="layer"
     id="layer1">
    <path
       style="fill:none;stroke:#000000;stroke-width:1px;stroke-linecap:butt;stroke-linejoin:miter;stroke-opacity:1"
       d="m 96.974639,347.27571 c 8.821061,21.15463 26.369031,33.00133 47.448601,36.48051 14.56443,2.58767 29.95976,7.14033 47.50574,5.94589 22.40106,1.7068 35.67273,-20.83543 39.73347,-39.78073 1.35106,-12.96116 -1.79252,-27.25333 -14.44492,-30.99384 -23.15955,3.08441 -38.36793,28.71187 -41.40033,50.58081 -3.70457,18.54604 -11.74971,36.47357 -16.2131,54.53895 -6.06617,16.44217 -18.11553,30.72598 -18.18274,50.50763 -6.76652,21.06213 -8.44583,42.69009 -14.99395,63.71243 -10.22945,19.06173 -19.00748,40.66064 -29.452771,59.52618 -3.058366,19.55202 -7.783141,26.32632 -16.16244,42.4264 -0.885166,6.5532 -7.627187,10.85031 -8.081221,18.18275 23.958721,3.88185 45.328632,-9.36918 67.317012,-13.32454 19.69908,-12.82962 41.05654,-19.72714 59.52637,-33.89498 10.47601,-6.72482 27.11263,-15.78347 38.82164,-29.55207 13.5797,-9.05019 24.8504,-20.69161 36.36549,-32.32488 19.68708,-13.83045 1.1292,21.35135 11.14875,31.30639 1.01836,12.19944 1.54404,23.35012 5.01369,33.34337 4.1688,22.37712 17.75924,42.01504 26.17041,62.66821 4.96164,6.86134 9.24469,17.27471 14.23569,23.19476 1.44137,-6.73427 7.55282,-31.56584 5.84165,-46.48067 3.21098,-16.82592 0.45804,-33.4167 5.18924,-50.51564 3.69757,-24.19748 13.13994,-47.91568 25.30938,-69.542 9.34898,-18.87584 12.0299,-42.17846 24.33452,-56.70788 3.72426,-15.01427 22.09144,-26.32396 23.53652,-40.51579 7.52241,-23.09981 30.13602,-36.02254 43.05338,-56.46859 15.59333,-17.80045 31.79475,-35.61709 52.07686,-48.15469 16.61211,-10.67317 -10.24854,8.69431 6.78375,-1.18302 13.8499,-10.23414 25.71048,-15.59475 44.13109,-18.3157 18.44085,-7.71736 38.36111,-8.55411 56.62694,-5.06537 1.20051,4.01284 10.67141,0.95854 10.10152,6.06092"
       id="path3022"
       inkscape:connector-curvature="0" />
  </g>
</svg>
